<svg width="1440" height="366" xmlns="http://www.w3.org/2000/svg"><g fill="none" fill-rule="evenodd"><path d="M-384-1046h247.374v583.387c0 181.367 147.988 328.928 329.86 328.928 181.873 0 329.847-147.561 329.847-328.928V-1046h247.374v583.387C770.455-145.225 511.508 113 193.235 113-125.053 113-384-145.225-384-462.613V-1046zM1079-243h121.71V44.03c0 89.234 72.81 161.835 162.294 161.835 89.482 0 162.286-72.6 162.286-161.834V-243H1647V44.03c0 156.158-127.404 283.206-283.996 283.206-156.6 0-284.004-127.048-284.004-283.205V-243z" fill="#F1F3F4"/><g fill="#F9AB00"><path d="M282 430V286.609H138.609V430zM-300 341.8l88.189 88.2L282-63.823 193.811-152z"/></g><g fill="#34A753"><path d="M1373 173h90v235h-90zM1587 44v90h-332V44z"/></g><path d="M378.359 133.862v-40.5h39.602c0-22.37-17.73-40.5-39.602-40.5-21.873 0-39.605 18.13-39.605 40.5 0 22.368 17.732 40.5 39.605 40.5" fill="#E94235"/><path d="M1167.356 179.913v65.449h-63.998c0 36.15 28.651 65.449 63.998 65.449 35.346 0 64.002-29.298 64.002-65.449 0-36.147-28.656-65.45-64.002-65.45" fill="#4285F4"/></g></svg>
