<svg width="1440" height="452" xmlns="http://www.w3.org/2000/svg" xmlns:xlink="http://www.w3.org/1999/xlink"><defs><path id="a" d="M0 0h1440v452H0z"/></defs><g fill="none" fill-rule="evenodd"><mask id="b" fill="#fff"><use xlink:href="#a"/></mask><use fill="#FFF" xlink:href="#a"/><g mask="url(#b)" fill="#4285F4"><path d="M254.4202-124L56 75.051 167.5798 187 366-12.0695zM56 422.943L254.4143 622 366 510.0754 167.5765 311zM-254.4886-124L-367-11.9373v.0185l261.9773 260.9234L-367 509.9188v.0185L-254.4886 622 7.4886 361.0673 120 249.0046 7.4886 136.942z"/></g><g mask="url(#b)"><path d="M992-771h247.374v583.3873c0 181.3663 147.9879 328.9277 329.8606 328.9277 181.8728 0 329.8463-147.5614 329.8463-328.9277V-771h247.374v583.3873c0 317.3874-258.9465 575.6127-577.2203 575.6127C1250.9466 388 992 129.7747 992-187.6127V-771z" fill="#F1F3F4"/><path fill="#34A753" d="M1395.7136 94v81.7136H1314v44.5702h81.7136V302h44.5728v-81.7162H1522v-44.5702h-81.7136V94z"/></g></g></svg>
