<svg width="1440" height="452" xmlns="http://www.w3.org/2000/svg" xmlns:xlink="http://www.w3.org/1999/xlink"><defs><path id="a" d="M0 0h1440v452H0z"/></defs><g fill="none" fill-rule="evenodd"><mask id="b" fill="#fff"><use xlink:href="#a"/></mask><use fill="#FFF" xlink:href="#a"/><g mask="url(#b)"><path d="M1002.1524-436.0017v247.374h-627.836c-195.1845 0-353.9887 147.9878-353.9887 329.8606 0 181.8728 158.8042 329.8463 353.9888 329.8463h627.8359v247.374h-627.836c-341.5691 0-619.4688-258.9465-619.4688-577.2203 0-318.2881 277.8997-577.2346 619.4689-577.2346h627.8359z" fill="#F1F3F4"/><g fill="#F0B005"><path d="M285.419 479.619v-103H174.5714v103zM-161.2 416.731l67.6682 62.888L285.419 127.4965 217.7337 64.619z"/></g></g><g mask="url(#b)" fill="#1A73E8"><path d="M1336 252.9048h208v-48.4286h-208zM1336 334.6952h208v-48.4285h-208zM1336 163.581h208v-48.4286h-208z"/></g></g></svg>
