<svg width="1190" height="162" xmlns="http://www.w3.org/2000/svg"><defs><path id="a" d="M611 696h1190v163H611z"/></defs><g fill="none" fill-rule="evenodd"><path d="M1374.221-696l38.902 145.1846-342.392 91.7436C964.2867-430.55 900.955-320.4899 929.5564-213.7482c28.6014 106.7417 138.476 170.3824 244.9205 141.8607l342.392-91.7437 38.902 145.1846-342.392 91.7437c-186.2756 49.9124-378.551-61.4556-428.6027-248.2515-50.0541-186.8044 60.7772-379.3895 247.0529-429.302L1374.221-696z" fill="#F1F3F4"/><path d="M826-430.1592V-456H698.3808v25.8408c0 97.364-84.7068 176.5786-182.3859 176.5786-97.669 0-182.3756-79.2146-182.3756-176.5786V-456H206v25.8408c0 126.478 76.665 235.3943 186.0762 283.1541C282.6651-99.235 206 9.6813 206 136.1592V162h127.6193v-25.8408c0-97.364 84.7067-176.5685 182.3756-176.5685 97.6791 0 182.3859 79.2045 182.3859 176.5685V162H826v-25.8408C826 9.6812 749.335-99.235 639.9237-147.005 749.335-194.7649 826-303.6813 826-430.1592" fill="#F9AB00"/><path d="M-611 458.4566L-474.4742 595 290-169.4918 153.4742-306z" fill="#4285F4"/></g></svg>
