<svg width="490" height="77" viewbox="0 0 490 77" xmlns="http://www.w3.org/2000/svg" xmlns:xlink="http://www.w3.org/1999/xlink"><defs><path id="a" d="M.12.12h606.72v154.93H.12z"/><path id="c" d="M.89.3h94.49v94.49H.89z"/></defs><g transform="translate(-59 -40)" fill="none" fill-rule="evenodd"><mask id="b" fill="#fff"><use xlink:href="#a"/></mask><g mask="url(#b)"><g transform="translate(57 30)"><mask id="d" fill="#fff"><use xlink:href="#c"/></mask><g mask="url(#d)" fill-rule="nonzero"><path d="M60.49 30.26l2.9.05 7.88-7.88.38-3.34c-6.26-5.57-14.5-8.96-23.52-8.96-16.33 0-30.11 11.11-34.19 26.16.86-.6 2.7-.15 2.7-.15l15.75-2.59s.81-1.34 1.22-1.26c3.6-3.94 8.78-6.42 14.53-6.42 4.67.01 8.97 1.66 12.35 4.39z" fill="#EA4335"/><path d="M82.34 36.32c-1.83-6.75-5.6-12.71-10.69-17.23L60.49 30.25c4.47 3.61 7.34 9.13 7.34 15.31v1.97c5.43 0 9.84 4.42 9.84 9.84 0 5.43-4.42 9.84-9.84 9.84H48.15l-1.97 1.98V81l1.97 1.96h19.68c14.11 0 25.59-11.48 25.59-25.59-.01-8.71-4.4-16.43-11.08-21.05z" fill="#4285F4"/><path d="M28.45 82.97h19.67V67.22H28.45c-1.45 0-2.82-.32-4.05-.88l-2.84.87-7.88 7.88-.69 2.66c4.3 3.27 9.66 5.22 15.46 5.22z" fill="#34A853"/><path d="M28.45 31.79c-14.11 0-25.59 11.48-25.59 25.59 0 8.31 3.98 15.7 10.14 20.38l11.41-11.41c-3.42-1.55-5.8-4.98-5.8-8.97 0-5.43 4.42-9.84 9.84-9.84 3.99 0 7.42 2.39 8.97 5.8l11.41-11.41c-4.68-6.16-12.07-10.14-20.38-10.14z" fill="#FBBC05"/></g></g><path d="M202.96 101.98c-7.06 0-13.13-2.5-18.24-7.5-5.1-5-7.66-11.01-7.66-18.02s2.55-13.02 7.66-18.02c5.1-5 11.18-7.5 18.24-7.5 6.76 0 12.6 2.34 17.49 7.03l-4.92 4.92c-3.53-3.32-7.72-4.98-12.57-4.98-5.1 0-9.43 1.8-12.98 5.42-3.55 3.61-5.32 7.99-5.32 13.13 0 5.15 1.77 9.52 5.32 13.13 3.55 3.61 7.87 5.42 12.98 5.42 5.19 0 9.48-1.7 12.89-5.11 2.03-2.03 3.3-4.96 3.8-8.78h-16.68v-6.97h23.47c.25 1.24.37 2.7.37 4.36 0 6.85-2.01 12.28-6.04 16.31-4.57 4.78-10.5 7.16-17.81 7.16zm54.54-4.7c-3.2 3.13-7.1 4.7-11.7 4.7s-8.51-1.57-11.7-4.7c-3.2-3.13-4.79-7.04-4.79-11.73s1.6-8.6 4.79-11.73c3.2-3.13 7.1-4.7 11.7-4.7s8.51 1.57 11.7 4.7c3.2 3.13 4.79 7.05 4.79 11.73 0 4.69-1.6 8.6-4.79 11.73zm-18.24-4.6c1.83 1.89 4 2.83 6.54 2.83 2.53 0 4.71-.94 6.54-2.83 1.83-1.89 2.74-4.26 2.74-7.13 0-2.9-.9-5.29-2.71-7.16s-3.99-2.8-6.57-2.8c-2.57 0-4.76.93-6.57 2.8-1.81 1.87-2.71 4.25-2.71 7.16 0 2.86.91 5.24 2.74 7.13zm54.22 4.6c-3.2 3.13-7.1 4.7-11.7 4.7s-8.51-1.57-11.7-4.7c-3.2-3.13-4.79-7.04-4.79-11.73s1.6-8.6 4.79-11.73c3.19-3.13 7.1-4.7 11.7-4.7s8.51 1.57 11.7 4.7c3.2 3.13 4.79 7.05 4.79 11.73 0 4.69-1.6 8.6-4.79 11.73zm-18.24-4.6c1.83 1.89 4 2.83 6.54 2.83 2.53 0 4.71-.94 6.54-2.83 1.83-1.89 2.74-4.26 2.74-7.13 0-2.9-.9-5.29-2.71-7.16s-3.99-2.8-6.57-2.8c-2.57 0-4.76.93-6.57 2.8-1.81 1.87-2.71 4.25-2.71 7.16 0 2.86.91 5.24 2.74 7.13zm41.89 24.06c-3.65 0-6.72-.98-9.21-2.93-2.49-1.95-4.27-4.21-5.35-6.79l6.29-2.61c.66 1.58 1.7 2.95 3.11 4.11 1.41 1.16 3.13 1.74 5.17 1.74 2.74 0 4.89-.83 6.44-2.49 1.56-1.66 2.33-4.05 2.33-7.16v-2.37h-.25c-2.03 2.49-4.92 3.74-8.65 3.74-4.19 0-7.86-1.6-11.02-4.79-3.15-3.19-4.73-7.05-4.73-11.58 0-4.56 1.58-8.46 4.73-11.67 3.15-3.21 6.83-4.82 11.02-4.82 1.87 0 3.56.35 5.07 1.06 1.51.71 2.71 1.58 3.58 2.61h.25v-2.68h6.85v29.51c0 5.73-1.46 10.01-4.39 12.86-2.93 2.83-6.67 4.26-11.24 4.26zm.5-21.23c2.49 0 4.58-.94 6.26-2.83 1.68-1.89 2.52-4.24 2.52-7.07 0-2.86-.84-5.25-2.52-7.16-1.68-1.91-3.77-2.86-6.26-2.86-2.53 0-4.69.96-6.47 2.86-1.79 1.91-2.68 4.29-2.68 7.16 0 2.82.89 5.18 2.68 7.07 1.78 1.89 3.94 2.83 6.47 2.83zm27.33-42.83v48.31h-7.22V52.68h7.22zm19.79 49.3c-4.65 0-8.53-1.58-11.64-4.73-3.11-3.15-4.67-7.05-4.67-11.7 0-4.81 1.5-8.76 4.51-11.83 3.01-3.07 6.67-4.61 10.99-4.61 1.99 0 3.84.36 5.54 1.09 1.7.73 3.11 1.66 4.23 2.8 1.12 1.14 2.01 2.25 2.68 3.33.66 1.08 1.2 2.16 1.62 3.24l.75 1.87-21.97 9.09c1.7 3.32 4.36 4.98 7.97 4.98 3.32 0 6.02-1.51 8.09-4.54l5.6 3.74c-1.25 1.87-3.01 3.55-5.29 5.04-2.29 1.49-5.09 2.23-8.41 2.23zm-9.15-16.93l14.69-6.1c-.42-1.04-1.18-1.88-2.3-2.52-1.12-.64-2.39-.96-3.8-.96-2.12 0-4.1.87-5.94 2.61-1.85 1.74-2.73 4.07-2.65 6.97zm61.07 16.93c-6.56 0-12.06-2.22-16.5-6.66-4.44-4.44-6.66-9.98-6.66-16.62 0-6.64 2.22-12.18 6.66-16.62 4.44-4.44 9.94-6.66 16.5-6.66 6.72 0 12.18 2.43 16.37 7.28l-3.98 3.86c-3.03-3.78-7.16-5.66-12.39-5.66-4.86 0-8.95 1.64-12.29 4.92-3.34 3.28-5.01 7.57-5.01 12.88 0 5.31 1.67 9.61 5.01 12.89 3.34 3.28 7.44 4.92 12.29 4.92 5.35 0 9.92-2.16 13.69-6.47l3.98 3.98c-2.03 2.45-4.59 4.39-7.66 5.82-3.06 1.43-6.4 2.14-10.01 2.14zm28.51-.99h-5.73V56.42h5.73v44.57zm9.34-26.86c2.95-3.09 6.7-4.64 11.27-4.64 4.56 0 8.32 1.55 11.27 4.64 2.95 3.09 4.42 6.96 4.42 11.61 0 4.65-1.47 8.52-4.42 11.61s-6.7 4.64-11.27 4.64c-4.57 0-8.32-1.55-11.27-4.64-2.95-3.09-4.42-6.96-4.42-11.61 0-4.65 1.47-8.52 4.42-11.61zm4.26 19.6c1.97 2.01 4.31 3.02 7 3.02 2.7 0 5.03-1.01 7-3.02 1.97-2.01 2.96-4.68 2.96-8 0-3.32-.99-5.99-2.96-8s-4.31-3.02-7-3.02c-2.7 0-5.03 1.01-7 3.02-1.97 2.01-2.96 4.68-2.96 8 0 3.32.99 5.99 2.96 8zm54.38 7.26h-5.48v-4.23h-.25c-.87 1.45-2.2 2.69-3.98 3.7-1.78 1.02-3.67 1.53-5.66 1.53-3.82 0-6.71-1.16-8.68-3.49-1.97-2.32-2.96-5.44-2.96-9.34V70.48h5.73v17.74c0 5.69 2.51 8.53 7.53 8.53 2.37 0 4.3-.95 5.79-2.86 1.49-1.91 2.24-4.11 2.24-6.6V70.48h5.73v30.51h-.01zm19.42.99c-3.94 0-7.35-1.56-10.21-4.67-2.86-3.11-4.29-6.97-4.29-11.58s1.43-8.47 4.29-11.58c2.86-3.11 6.27-4.67 10.21-4.67 2.32 0 4.41.5 6.26 1.49 1.85 1 3.23 2.24 4.14 3.74h.25l-.25-4.23V56.42h5.73v44.57h-5.48v-4.23h-.25c-.91 1.49-2.29 2.74-4.14 3.74-1.85.98-3.94 1.48-6.26 1.48zm.93-5.23c2.7 0 4.99-1 6.88-2.99 1.89-1.99 2.83-4.67 2.83-8.03 0-3.36-.94-6.04-2.83-8.03-1.89-1.99-4.18-2.99-6.88-2.99-2.66 0-4.94 1.01-6.85 3.02-1.91 2.01-2.86 4.68-2.86 8 0 3.32.95 5.99 2.86 8 1.91 2.02 4.2 3.02 6.85 3.02z" fill="#5F6368" fill-rule="nonzero"/></g></g></svg>